<svg width="512" height="512" viewBox="0 0 512 512" fill="none" xmlns="http://www.w3.org/2000/svg">
<rect width="512" height="512" rx="96" fill="url(#paint0_linear_1_2)"/>
<path fill-rule="evenodd" clip-rule="evenodd" d="M301.436 165.129L287.875 192.25L279.618 208.764C277.956 212.088 280.373 216 284.09 216H345.325C349.564 216 351.88 220.944 349.166 224.201L318.389 261.134L311.969 268.838C319.642 276.351 325.762 285.37 329.91 295.385C335.965 310.003 337.55 326.089 334.463 341.607C331.376 357.126 323.757 371.38 312.569 382.569C301.38 393.757 287.126 401.376 271.607 404.463C256.089 407.55 240.003 405.965 225.385 399.91C210.767 393.855 198.273 383.602 189.482 370.446C181.62 358.679 177.036 345.063 176.156 330.997C175.984 328.241 178.239 326 181 326H191C193.761 326 195.978 328.243 196.208 330.994C197.052 341.1 200.448 350.857 206.112 359.334C212.705 369.201 222.075 376.892 233.039 381.433C244.003 385.974 256.067 387.162 267.705 384.847C279.344 382.532 290.035 376.818 298.426 368.426C306.818 360.035 312.532 349.344 314.847 337.705C317.162 326.067 315.974 314.003 311.433 303.039C308.528 296.027 304.336 289.667 299.11 284.268L292.664 292.003L270.583 318.5L229.172 368.193C223.335 364.482 218.304 359.582 214.427 353.778C212.952 351.572 211.663 349.262 210.564 346.871L224.75 318.5L232.382 303.236C234.044 299.912 231.627 296 227.91 296H166.675C162.436 296 160.12 291.056 162.834 287.799L193.611 250.866L200.031 243.162C192.358 235.649 186.238 226.63 182.09 216.615C176.035 201.997 174.45 185.911 177.537 170.393C180.624 154.874 188.243 140.62 199.431 129.431C210.62 118.243 224.874 110.624 240.393 107.537C255.911 104.45 271.997 106.035 286.615 112.09C301.233 118.145 313.727 128.398 322.518 141.554C330.38 153.321 334.964 166.938 335.844 181.003C336.016 183.759 333.761 186 331 186L321 186C318.239 186 316.022 183.757 315.792 181.006C314.948 170.9 311.552 161.143 305.888 152.666C299.295 142.799 289.925 135.109 278.961 130.567C267.997 126.026 255.933 124.838 244.295 127.153C232.656 129.468 221.965 135.182 213.574 143.574C205.182 151.965 199.468 162.656 197.153 174.295C194.838 185.933 196.026 197.997 200.567 208.961C203.472 215.973 207.664 222.333 212.89 227.732L219.336 219.997L242.458 192.25L282.828 143.807C288.665 147.518 293.696 152.418 297.574 158.222C299.048 160.428 300.337 162.738 301.436 165.129ZM321.736 124.528L336.734 94.5322C339.389 89.2214 332.222 84.5338 328.421 89.0952L308.553 112.937C313.31 116.359 317.727 120.241 321.736 124.528ZM203.447 399.063C198.69 395.641 194.273 391.759 190.264 387.472L175.266 417.468C172.611 422.779 179.778 427.466 183.579 422.905L203.447 399.063Z" fill="white"/>
<defs>
<linearGradient id="paint0_linear_1_2" x1="256" y1="0" x2="256" y2="512" gradientUnits="userSpaceOnUse">
<stop stop-color="#00D5FF"/>
<stop offset="1" stop-color="#0080FF"/>
<stop offset="1" stop-color="#0088CC"/>
<stop offset="1" stop-color="#0080FF"/>
</linearGradient>
</defs>
</svg>
